<?xml version="1.0" encoding="UTF-8"?>
<svg width="24px" height="24px" viewBox="0 0 24 24" version="1.1" xmlns="http://www.w3.org/2000/svg" xmlns:xlink="http://www.w3.org/1999/xlink">
    <title>895AF518-F4B5-41DD-9D3C-3A6F31A48DB5@1.5x</title>
    <defs>
        <filter color-interpolation-filters="auto" id="filter-1">
            <feColorMatrix in="SourceGraphic" type="matrix" values="0 0 0 0 0.961711 0 0 0 0 0.650367 0 0 0 0 0.138542 0 0 0 1.000000 0"></feColorMatrix>
        </filter>
        <path d="M11.25,1.4516129 C16.6309929,1.4516129 21.0483871,5.80985383 21.0483871,11.25 C21.0483871,16.6613861 16.665877,21.0483871 11.25,21.0483871 C5.84074597,21.0483871 1.4516129,16.6680544 1.4516129,11.25 C1.4516129,5.84260585 5.83376008,1.4516129 11.25,1.4516129 L11.25,1.4516129 Z M11.25,0 C5.03723286,0 0,5.03904738 0,11.25 C0,17.4645817 5.03723286,22.5 11.25,22.5 C17.4627671,22.5 22.5,17.4645817 22.5,11.25 C22.5,5.03904738 17.4627671,0 11.25,0 Z M9.61693548,15.6048387 L10.1612903,15.6048387 L10.1612903,10.1612903 L9.61693548,10.1612903 C9.31631552,10.1612903 9.07258065,9.91755544 9.07258065,9.61693548 L9.07258065,9.25403226 C9.07258065,8.9534123 9.31631552,8.70967742 9.61693548,8.70967742 L11.7943548,8.70967742 C12.0949748,8.70967742 12.3387097,8.9534123 12.3387097,9.25403226 L12.3387097,15.6048387 L12.8830645,15.6048387 C13.1836845,15.6048387 13.4274194,15.8485736 13.4274194,16.1491935 L13.4274194,16.5120968 C13.4274194,16.8127167 13.1836845,17.0564516 12.8830645,17.0564516 L9.61693548,17.0564516 C9.31631552,17.0564516 9.07258065,16.8127167 9.07258065,16.5120968 L9.07258065,16.1491935 C9.07258065,15.8485736 9.31631552,15.6048387 9.61693548,15.6048387 Z M11.25,4.71774194 C10.4483014,4.71774194 9.7983871,5.36765625 9.7983871,6.16935484 C9.7983871,6.97105343 10.4483014,7.62096774 11.25,7.62096774 C12.0516986,7.62096774 12.7016129,6.97105343 12.7016129,6.16935484 C12.7016129,5.36765625 12.0516986,4.71774194 11.25,4.71774194 Z" id="path-2"></path>
    </defs>
    <g id="Sale-Report" stroke="none" stroke-width="1" fill="none" fill-rule="evenodd">
        <g id="allert-triangle" transform="translate(-525.000000, -452.000000)" filter="url(#filter-1)">
            <g transform="translate(525.750000, 452.750000)">
                <mask id="mask-3" fill="white">
                    <use xlink:href="#path-2"></use>
                </mask>
                <use id="Shape" fill="#000000" fill-rule="nonzero" xlink:href="#path-2"></use>
                <g id="Group" mask="url(#mask-3)">
                    <g transform="translate(-0.750000, -0.750000)" id="Color">
                        <rect id="Rectangle-5" fill="#000000" x="0" y="0" width="24" height="24"></rect>
                    </g>
                </g>
            </g>
        </g>
    </g>
</svg>